<svg xmlns="http://www.w3.org/2000/svg" xmlns:xlink="http://www.w3.org/1999/xlink" width="500" zoomAndPan="magnify" viewBox="0 0 375 374.999991" height="500" preserveAspectRatio="xMidYMid meet" version="1.0"><defs><clipPath id="ed74df3a6a"><path d="M 25.644531 64 L 306.59375 64 L 306.59375 347.257812 L 25.644531 347.257812 Z M 25.644531 64 " clip-rule="nonzero"/></clipPath><clipPath id="bff3a28fdd"><path d="M 68 64 L 349.363281 64 L 349.363281 347.257812 L 68 347.257812 Z M 68 64 " clip-rule="nonzero"/></clipPath><clipPath id="1af0221ca2"><path d="M 25.644531 30.234375 L 349.363281 30.234375 L 349.363281 237.847656 L 25.644531 237.847656 Z M 25.644531 30.234375 " clip-rule="nonzero"/></clipPath></defs><g clip-path="url(#ed74df3a6a)"><path fill="#b2d3e2" d="M 134.824219 176.515625 C 134.722656 176.515625 134.617188 176.515625 134.617188 176.515625 L 42.796875 175.171875 C 33.1875 175.066406 25.441406 167.117188 25.648438 157.507812 C 25.753906 148.007812 33.601562 140.363281 43.101562 140.363281 C 43.207031 140.363281 43.3125 140.363281 43.3125 140.363281 L 135.136719 141.707031 C 144.742188 141.808594 152.488281 149.761719 152.28125 159.367188 C 152.175781 168.871094 144.324219 176.515625 134.824219 176.515625 Z M 231.195312 347.257812 C 224.996094 347.257812 219.003906 343.949219 215.804688 338.164062 L 172.007812 257.496094 C 167.464844 249.027344 170.5625 238.492188 179.03125 233.84375 C 187.503906 229.296875 198.035156 232.394531 202.683594 240.867188 L 246.484375 321.535156 C 251.027344 330.003906 247.925781 340.542969 239.457031 345.191406 C 236.875 346.53125 233.984375 347.257812 231.195312 347.257812 Z M 239.871094 141.707031 L 272.097656 141.191406 L 303.910156 90.785156 C 308.972656 82.625 306.597656 71.882812 298.4375 66.71875 C 290.277344 61.660156 279.535156 64.03125 274.371094 72.195312 L 227.269531 146.972656 C 227.0625 147.390625 226.855469 147.800781 226.652344 148.113281 C 229.75 144.292969 234.5 141.808594 239.871094 141.707031 " fill-opacity="1" fill-rule="nonzero"/></g><g clip-path="url(#bff3a28fdd)"><path fill="#305f80" d="M 240.179688 176.515625 C 230.679688 176.515625 222.929688 168.871094 222.726562 159.367188 C 222.621094 149.761719 230.265625 141.808594 239.871094 141.707031 L 331.59375 140.363281 C 341.40625 140.261719 349.152344 147.90625 349.257812 157.507812 C 349.355469 167.117188 341.714844 175.066406 332.109375 175.171875 L 240.386719 176.515625 C 240.285156 176.515625 240.285156 176.515625 240.179688 176.515625 Z M 102.804688 141.191406 L 135.136719 141.707031 C 140.402344 141.808594 145.050781 144.1875 148.152344 147.90625 C 148.046875 147.59375 147.839844 147.390625 147.734375 147.078125 L 100.636719 72.292969 C 95.472656 64.136719 84.726562 61.660156 76.570312 66.824219 C 68.40625 71.988281 65.929688 82.726562 71.09375 90.886719 Z M 172.007812 257.496094 C 169.632812 252.953125 169.324219 247.886719 170.875 243.449219 C 170.769531 243.550781 170.664062 243.757812 170.664062 243.859375 L 128.527344 321.535156 C 123.980469 330.003906 127.078125 340.644531 135.546875 345.191406 C 138.128906 346.53125 141.023438 347.257812 143.808594 347.257812 C 150.007812 347.257812 156 343.949219 159.203125 338.164062 L 187.503906 286.003906 L 172.007812 257.496094 " fill-opacity="1" fill-rule="nonzero"/></g><g clip-path="url(#1af0221ca2)"><path fill="#a7cbda" d="M 187.402344 145.734375 C 184.609375 145.734375 181.71875 145.011719 179.136719 143.667969 C 170.664062 139.125 167.566406 128.488281 172.113281 120.019531 L 215.90625 39.347656 C 220.453125 30.878906 231.089844 27.777344 239.5625 32.320312 C 248.03125 36.871094 251.128906 47.503906 246.582031 55.976562 L 202.789062 136.644531 C 199.585938 142.429688 193.597656 145.734375 187.402344 145.734375 Z M 119.953125 208.847656 C 122.738281 204.507812 126.976562 201.824219 131.625 200.996094 C 131.519531 200.996094 131.414062 200.996094 131.414062 200.996094 C 131.414062 200.996094 131.3125 200.996094 131.210938 200.996094 L 42.796875 202.234375 C 33.1875 202.339844 25.546875 210.292969 25.648438 219.898438 C 25.851562 229.402344 33.601562 237.042969 43.101562 237.042969 C 43.101562 237.042969 43.207031 237.042969 43.3125 237.042969 L 102.703125 236.21875 Z M 332.214844 202.234375 L 243.796875 200.996094 C 243.796875 200.996094 243.695312 200.996094 243.589844 200.996094 C 243.589844 200.996094 243.589844 200.996094 243.484375 200.996094 C 248.03125 201.824219 252.371094 204.609375 255.054688 208.847656 L 272.304688 236.21875 L 331.695312 237.042969 C 331.695312 237.042969 331.796875 237.042969 331.902344 237.042969 C 341.40625 237.042969 349.257812 229.402344 349.355469 219.898438 C 349.566406 210.292969 341.820312 202.339844 332.214844 202.234375 " fill-opacity="1" fill-rule="nonzero"/></g><path fill="#006990" d="M 85.761719 313.269531 C 82.5625 313.269531 79.359375 312.445312 76.464844 310.589844 C 68.308594 305.421875 65.929688 294.679688 70.988281 286.519531 L 119.953125 208.847656 C 125.117188 200.683594 135.855469 198.308594 144.019531 203.371094 C 152.175781 208.535156 154.554688 219.277344 149.492188 227.441406 L 100.53125 305.113281 C 97.226562 310.378906 91.546875 313.269531 85.761719 313.269531 Z M 289.242188 313.269531 C 283.460938 313.269531 277.78125 310.378906 274.472656 305.113281 L 225.515625 227.441406 C 220.347656 219.277344 222.828125 208.535156 230.988281 203.371094 C 239.148438 198.207031 249.890625 200.683594 255.054688 208.847656 L 304.015625 286.519531 C 309.179688 294.679688 306.703125 305.421875 298.539062 310.589844 C 295.644531 312.445312 292.445312 313.269531 289.242188 313.269531 Z M 172.113281 120.019531 L 187.503906 91.714844 L 159.097656 39.347656 C 154.449219 30.878906 143.914062 27.777344 135.445312 32.320312 C 126.976562 36.96875 123.878906 47.503906 128.421875 55.976562 L 170.5625 133.652344 C 170.769531 134.0625 170.976562 134.476562 171.285156 134.785156 C 169.425781 130.136719 169.53125 124.765625 172.113281 120.019531 " fill-opacity="1" fill-rule="nonzero"/></svg>